<?xml version="1.0" encoding="utf-8"?>
<!-- Generator: Adobe Illustrator 20.0.0, SVG Export Plug-In . SVG Version: 6.00 Build 0)  -->
<svg version="1.1" id="GLYPHS" xmlns="http://www.w3.org/2000/svg" xmlns:xlink="http://www.w3.org/1999/xlink" x="0px" y="0px"
	 width="53.2px" height="42px" viewBox="0 0 53.2 42" style="enable-background:new 0 0 53.2 42;" xml:space="preserve">
<style type="text/css">
	.st0{display:none;}
	.st1{display:inline;}
	.st2{fill:none;}
	.st3{fill:#FFFFFF;}
</style>
<rect x="-3.5" y="-2.6" class="st0" width="59" height="47"/>
<g id="Music_1_" class="st0">
	<g class="st1">
		<rect x="3" y="0" class="st2" width="46" height="42"/>
	</g>
	<g class="st1">
		<path class="st3" d="M14.5,27v-9.1h-0.1l-3.8,9.1H9.4l-3.8-9.1H5.5V27H4.1V15h1.7l4.1,9.9h0.1l4.1-9.9h1.7v12H14.5z M25.7,27h-1.4
			v-1.4h-0.1c-0.5,1-1.4,1.6-2.8,1.6c-2,0-3-1.2-3-3.3v-5.8h1.4v5.5c0,1.6,0.6,2.4,2,2.4c1.6,0,2.4-0.9,2.4-2.5v-5.3h1.4L25.7,27
			L25.7,27z M31.2,17.9c1.9,0,3.2,0.9,3.4,2.4h-1.4c-0.2-0.7-0.9-1.2-2-1.2c-1.1,0-1.9,0.5-1.9,1.3c0,0.6,0.5,1,1.5,1.2l1.4,0.3
			c1.7,0.4,2.5,1.1,2.5,2.4c0,1.6-1.5,2.7-3.6,2.7c-2,0-3.4-1-3.5-2.4h1.5c0.2,0.8,1,1.2,2.1,1.2c1.2,0,2.1-0.6,2.1-1.4
			c0-0.6-0.5-1-1.4-1.3l-1.5-0.4c-1.7-0.4-2.4-1.1-2.4-2.4C27.9,19,29.4,17.9,31.2,17.9z M36.5,15.2c0-0.6,0.5-1,1-1s1,0.4,1,1
			s-0.5,1-1,1S36.5,15.8,36.5,15.2z M36.8,18.1h1.4v9h-1.4V18.1z M46.6,20.8c-0.2-0.9-1-1.6-2.3-1.6c-1.6,0-2.6,1.3-2.6,3.3
			c0,2.1,1,3.4,2.6,3.4c1.2,0,2-0.6,2.3-1.6H48c-0.3,1.6-1.6,2.9-3.7,2.9c-2.5,0-4.1-1.8-4.1-4.7c0-2.8,1.6-4.6,4.1-4.6
			c2.2,0,3.5,1.3,3.8,2.9L46.6,20.8z"/>
	</g>
</g>
<g>
	<path class="st3" d="M0.9,26.5l-0.3-1.2c0.2,0,0.3,0,0.5,0.1c0.2,0,0.3,0,0.5,0c0.3,0,0.5-0.2,0.5-0.5V22c-0.2,0.1-0.5,0.2-0.7,0.3
		c-0.2,0.1-0.5,0.2-0.7,0.3l-0.3-1.3c0.6-0.1,1.2-0.3,1.8-0.5v-2.9H0.6v-1.2h1.5v-2.3h1.2v2.3h1.3v1.2H3.3v2.4
		c0.2-0.1,0.5-0.2,0.7-0.3c0.2-0.1,0.4-0.2,0.7-0.4v1.2c-0.2,0.1-0.5,0.2-0.7,0.4c-0.2,0.1-0.4,0.2-0.7,0.3v3.6
		c0,0.9-0.4,1.3-1.3,1.3H0.9z M8.1,16.2v-1.8h1.2v1.8h3.1v1.2H9.3v1.9h2.6v1.1c-0.4,1.4-1.2,2.6-2.1,3.6c0.9,0.6,1.9,1.2,3,1.6
		l-0.7,1.1c-0.6-0.3-1.2-0.6-1.8-0.9c-0.5-0.3-1-0.6-1.5-1c-0.5,0.4-1,0.7-1.6,1.1c-0.6,0.3-1.3,0.6-2,0.9l-0.6-1
		c1.4-0.4,2.5-1,3.4-1.7c-1-1-1.7-2.2-2.1-3.5H5.2v-1.2h2.8v-1.9H4.9v-1.2H8.1z M7.1,20.4c0.3,1,0.9,1.9,1.8,2.8
		c0.8-0.8,1.4-1.7,1.8-2.8H7.1z"/>
	<path class="st3" d="M19.2,17.4v-3.1h1.3v3.1h5.1v1.2h-3.9c0.9,2.1,2.3,3.9,4.3,5.5L25,25.2c-2.2-2-3.7-4.1-4.6-6.6v7.9h-1.3v-7.9
		c-1,2.7-2.6,4.9-4.8,6.6l-0.7-1.1c2-1.5,3.5-3.3,4.4-5.5h-3.9v-1.2H19.2z M22.6,14.3c0.8,0.8,1.4,1.5,1.8,2.1l-1,0.7
		c-0.2-0.3-0.5-0.7-0.8-1c-0.3-0.4-0.6-0.7-1-1.2L22.6,14.3z"/>
	<path class="st3" d="M33.8,14.3V16h5.1v1.2h-5.1v1.8h3.5V20c-0.7,1.4-1.7,2.7-3.1,3.7c0.3,0.2,0.6,0.3,0.9,0.5
		c0.3,0.2,0.7,0.3,1,0.4c0.9,0.4,1.9,0.6,3,0.9l-0.7,1.1c-0.6-0.2-1.1-0.3-1.7-0.5c-0.6-0.2-1.1-0.4-1.6-0.6c-0.4-0.2-0.7-0.3-1-0.5
		s-0.7-0.3-1-0.5c-1.5,0.9-3.3,1.6-5.3,2.2l-0.7-1.1c1-0.2,1.9-0.5,2.7-0.8c0.8-0.3,1.6-0.6,2.3-1c-0.3-0.3-0.6-0.5-0.9-0.8
		s-0.6-0.6-0.8-0.9c-0.5-0.6-0.8-1.2-1-1.9h-0.9v-1.2h4.1v-1.8h-5.1V16h5.1v-1.6H33.8z M33.1,23.1c0.6-0.4,1.1-0.9,1.6-1.4
		c0.5-0.5,0.9-1,1.2-1.6h-5.3c0.1,0.3,0.3,0.6,0.4,0.9s0.4,0.5,0.6,0.8c0.2,0.2,0.5,0.5,0.7,0.7S32.9,22.9,33.1,23.1z"/>
	<path class="st3" d="M40.8,26.5l-0.3-1.2c0.2,0,0.4,0,0.5,0.1s0.3,0,0.5,0c0.3,0,0.5-0.2,0.5-0.5v-2.8c-0.2,0.1-0.5,0.2-0.7,0.2
		c-0.2,0.1-0.5,0.1-0.7,0.2l-0.3-1.3c0.3-0.1,0.6-0.1,0.9-0.2s0.6-0.2,0.9-0.3V18h-1.5v-1.2H42v-2.3h1.2v2.3h1.3V18h-1.3v2.3
		c0.2-0.1,0.4-0.2,0.7-0.3c0.2-0.1,0.4-0.2,0.6-0.3V21c-0.2,0.1-0.4,0.2-0.6,0.3c-0.2,0.1-0.4,0.2-0.6,0.3v3.6
		c0,0.9-0.4,1.3-1.3,1.3H40.8z M49.5,20.7v-0.9h1.2v0.9h1.6v1.2h-1.6v3.3c0,0.9-0.4,1.3-1.3,1.3h-1.8l-0.3-1.2c0.3,0,0.5,0,0.8,0
		c0.3,0,0.5,0,0.8,0c0.3,0,0.5-0.2,0.5-0.5v-3h-4.7v-1.2H49.5z M49.2,14.4v1.2h2.6v1.2h-2.6v1.3h3.1v1.2H45v-1.2h3v-1.3h-2.5v-1.2
		H48v-1.2H49.2z M46.4,22.3c0.6,0.8,1.1,1.5,1.4,2.1l-1,0.7c-0.2-0.3-0.4-0.6-0.6-1c-0.2-0.4-0.5-0.7-0.8-1.1L46.4,22.3z"/>
</g>
</svg>
